<svg xmlns="http://www.w3.org/2000/svg" viewBox="0 0 200 200" preserveAspectRatio="xMidYMid meet">
  <path fill="#427b8f" d="M100,0 L66.667,66.667 L0,100 L66.667,133.333 L100,200 L133.333,133.333 L200,100 L133.333,66.667 Z"/>
  <circle fill="#427b8f" cx="39" cy="39" r="12"/>
  <circle fill="#427b8f" cx="161" cy="39" r="12"/>
  <circle fill="#427b8f" cx="39" cy="161" r="12"/>
  <circle fill="#427b8f" cx="161" cy="161" r="12"/>
  <path fill="#e10000" d="M100,63.93 C80.09,63.93 63.93,79.70 63.93,99.13 C63.93,102.06 64.33,104.90 65.08,107.99 C73.31,99.81 85.90,94.71 100,94.71 C114.10,94.71 126.69,99.81 134.92,107.99 C135.67,104.90 136.07,102.06 136.07,99.13 C136.07,79.70 119.91,63.93 100,63.93 Z"/>
  <path fill="#ffffff" d="M100,100.99 C86.40,100.99 74.52,106.97 68.13,115.58 C73.43,125.35 83.29,132.38 94.95,133.97 L94.95,160.07 L105.05,160.07 L105.05,133.97 C116.71,132.38 126.57,125.35 131.88,115.58 C125.49,106.97 113.60,100.99 100,100.99 Z"/>
</svg>
